<?xml version="1.0" standalone="no"?>
<!DOCTYPE svg PUBLIC "-//W3C//DTD SVG 20010904//EN" "http://www.w3.org/TR/2001/REC-SVG-20010904/DTD/svg10.dtd">
<svg version="1.0" xmlns="http://www.w3.org/2000/svg" width="1024.000000pt" height="1024.000000pt"
    viewBox="0 0 1024.000000 1024.000000" preserveAspectRatio="xMidYMid meet">
    <metadata>
        Created by potrace 1.16, written by Peter Selinger 2001-2019
    </metadata>
    <g transform="translate(0.000000,1024.000000) scale(0.100000,-0.100000)" fill="#0062b0" stroke="none">
        <path d="M5048 10062 c-9 -4 -236 -223 -505 -487 -1313 -1292 -1642 -1617
-1683 -1662 -24 -26 -162 -169 -306 -318 -566 -584 -820 -886 -993 -1180 -286
-485 -463 -1002 -542 -1575 -26 -196 -37 -688 -20 -891 41 -469 150 -894 341
-1324 286 -647 728 -1200 1308 -1640 57 -42 105 -75 109 -72 3 3 -11 66 -31
139 -98 365 -143 679 -153 1068 -28 1117 358 2228 1071 3085 55 66 402 424
771 795 683 687 751 761 895 980 98 149 222 411 284 600 94 287 125 468 133
776 6 245 -4 384 -43 584 -27 141 -87 346 -140 483 -86 219 -295 579 -360 622
-30 20 -108 30 -136 17z" />
        <path d="M7085 7991 c-16 -10 -694 -684 -1506 -1497 -987 -989 -1510 -1521
-1580 -1605 -394 -476 -674 -1035 -824 -1643 -87 -352 -116 -574 -122 -943 -7
-371 10 -573 77 -903 58 -282 167 -619 236 -728 51 -80 141 -163 221 -205 179
-93 691 -230 981 -262 l62 -7 0 39 c0 96 22 382 40 523 104 801 410 1556 891
2195 182 243 239 303 1018 1085 302 304 581 592 628 650 295 367 470 763 555
1255 19 113 22 167 23 410 0 293 -6 357 -51 577 -49 235 -111 413 -226 643
-85 171 -227 389 -271 416 -41 25 -112 25 -152 0z" />
        <path d="M8855 5631 c-47 -30 -2692 -2685 -2780 -2791 -591 -714 -929 -1591
-962 -2499 l-6 -174 199 6 c574 17 1124 159 1654 428 1210 613 2071 1798 2255
3104 52 371 48 880 -11 1243 -40 251 -123 584 -160 640 -38 58 -131 80 -189
43z" />
    </g>
</svg>